<?xml version="1.0" encoding="UTF-8" standalone="no"?>
<!-- Created with Inkscape (http://www.inkscape.org/) -->

<svg
   width="370.55215mm"
   height="47.016975mm"
   viewBox="0 0 370.55215 47.016975"
   version="1.1"
   id="svg1"
   xml:space="preserve"
   inkscape:version="1.4 (e7c3feb1, 2024-10-09)"
   sodipodi:docname="aim-health.svg"
   inkscape:export-filename="aim-health.png"
   inkscape:export-xdpi="96"
   inkscape:export-ydpi="96"
   xmlns:inkscape="http://www.inkscape.org/namespaces/inkscape"
   xmlns:sodipodi="http://sodipodi.sourceforge.net/DTD/sodipodi-0.dtd"
   xmlns="http://www.w3.org/2000/svg"
   xmlns:svg="http://www.w3.org/2000/svg"><sodipodi:namedview
     id="namedview1"
     pagecolor="#ffffff"
     bordercolor="#111111"
     borderopacity="1"
     inkscape:showpageshadow="0"
     inkscape:pageopacity="0"
     inkscape:pagecheckerboard="1"
     inkscape:deskcolor="#d1d1d1"
     inkscape:document-units="mm"
     inkscape:zoom="0.56839482"
     inkscape:cx="790.82354"
     inkscape:cy="197.9258"
     inkscape:window-width="1800"
     inkscape:window-height="1042"
     inkscape:window-x="760"
     inkscape:window-y="1484"
     inkscape:window-maximized="1"
     inkscape:current-layer="layer1" /><defs
     id="defs1"><clipPath
       clipPathUnits="userSpaceOnUse"
       id="clipPath3"><path
         d="M 0,841.89 H 1190.551 V 0 H 0 Z"
         transform="translate(-321.12571,-389.13511)"
         id="path3" /></clipPath><clipPath
       clipPathUnits="userSpaceOnUse"
       id="clipPath5"><path
         d="M 0,841.89 H 1190.551 V 0 H 0 Z"
         transform="translate(-233.6266,-385.89191)"
         id="path5" /></clipPath><clipPath
       clipPathUnits="userSpaceOnUse"
       id="clipPath7"><path
         d="M 0,841.89 H 1190.551 V 0 H 0 Z"
         transform="translate(-279.59961,-322.91071)"
         id="path7-7" /></clipPath><clipPath
       clipPathUnits="userSpaceOnUse"
       id="clipPath9"><path
         d="M 0,841.89 H 1190.551 V 0 H 0 Z"
         transform="translate(-259.9486,-440.89311)"
         id="path9-1" /></clipPath><clipPath
       clipPathUnits="userSpaceOnUse"
       id="clipPath11"><path
         d="M 0,841.89 H 1190.551 V 0 H 0 Z"
         transform="translate(-162.0444,-447.72491)"
         id="path11-8" /></clipPath><clipPath
       clipPathUnits="userSpaceOnUse"
       id="clipPath13"><path
         d="M 0,841.89 H 1190.551 V 0 H 0 Z"
         transform="translate(-200.7433,-423.79461)"
         id="path13-4" /></clipPath><clipPath
       clipPathUnits="userSpaceOnUse"
       id="clipPath15"><path
         d="M 0,841.89 H 1190.551 V 0 H 0 Z"
         transform="translate(-360.56161,-337.16031)"
         id="path15-9" /></clipPath><clipPath
       clipPathUnits="userSpaceOnUse"
       id="clipPath17"><path
         d="M 0,841.89 H 1190.551 V 0 H 0 Z"
         transform="translate(-314.68141,-490.62281)"
         id="path17-7" /></clipPath><clipPath
       clipPathUnits="userSpaceOnUse"
       id="clipPath19"><path
         d="M 0,841.89 H 1190.551 V 0 H 0 Z"
         transform="translate(-475.79151,-497.07111)"
         id="path19-3" /></clipPath><clipPath
       clipPathUnits="userSpaceOnUse"
       id="clipPath21"><path
         d="M 0,841.89 H 1190.551 V 0 H 0 Z"
         transform="translate(-517.37932,-471.89211)"
         id="path21" /></clipPath><clipPath
       clipPathUnits="userSpaceOnUse"
       id="clipPath23"><path
         d="M 0,841.89 H 1190.551 V 0 H 0 Z"
         transform="translate(-562.38982,-476.77351)"
         id="path23" /></clipPath><clipPath
       clipPathUnits="userSpaceOnUse"
       id="clipPath25"><path
         d="M 0,841.89 H 1190.551 V 0 H 0 Z"
         transform="translate(-623.15162,-474.52321)"
         id="path25" /></clipPath><clipPath
       clipPathUnits="userSpaceOnUse"
       id="clipPath27"><path
         d="M 0,841.89 H 1190.551 V 0 H 0 Z"
         transform="translate(-676.28212,-449.86361)"
         id="path27" /></clipPath><clipPath
       clipPathUnits="userSpaceOnUse"
       id="clipPath29"><path
         d="M 0,841.89 H 1190.551 V 0 H 0 Z"
         transform="translate(-727.46132,-497.07111)"
         id="path29" /></clipPath><clipPath
       clipPathUnits="userSpaceOnUse"
       id="clipPath31"><path
         d="M 0,841.89 H 1190.551 V 0 H 0 Z"
         transform="translate(-771.69894,-488.72281)"
         id="path31" /></clipPath><clipPath
       clipPathUnits="userSpaceOnUse"
       id="clipPath33"><path
         d="M 0,841.89 H 1190.551 V 0 H 0 Z"
         transform="translate(-438.65701,-386.99731)"
         id="path33" /></clipPath><clipPath
       clipPathUnits="userSpaceOnUse"
       id="clipPath35"><path
         d="M 0,841.89 H 1190.551 V 0 H 0 Z"
         transform="translate(-483.84361,-389.80561)"
         id="path35" /></clipPath><clipPath
       clipPathUnits="userSpaceOnUse"
       id="clipPath37"><path
         d="M 0,841.89 H 1190.551 V 0 H 0 Z"
         transform="translate(-501.63611,-386.99731)"
         id="path37" /></clipPath><clipPath
       clipPathUnits="userSpaceOnUse"
       id="clipPath39"><path
         d="M 0,841.89 H 1190.551 V 0 H 0 Z"
         transform="translate(-523.84831,-386.99731)"
         id="path39" /></clipPath><clipPath
       clipPathUnits="userSpaceOnUse"
       id="clipPath41"><path
         d="M 0,841.89 H 1190.551 V 0 H 0 Z"
         transform="translate(-560.51791,-401.56731)"
         id="path41" /></clipPath><clipPath
       clipPathUnits="userSpaceOnUse"
       id="clipPath43"><path
         d="M 0,841.89 H 1190.551 V 0 H 0 Z"
         transform="translate(-598.36072,-405.18211)"
         id="path43" /></clipPath><clipPath
       clipPathUnits="userSpaceOnUse"
       id="clipPath45"><path
         d="M 0,841.89 H 1190.551 V 0 H 0 Z"
         id="path45" /></clipPath><clipPath
       clipPathUnits="userSpaceOnUse"
       id="clipPath47"><path
         d="M 0,841.89 H 1190.551 V 0 H 0 Z"
         transform="translate(-633.47612,-397.78111)"
         id="path47" /></clipPath><clipPath
       clipPathUnits="userSpaceOnUse"
       id="clipPath49"><path
         d="M 0,841.89 H 1190.551 V 0 H 0 Z"
         transform="translate(-667.27862,-404.97401)"
         id="path49" /></clipPath><clipPath
       clipPathUnits="userSpaceOnUse"
       id="clipPath51"><path
         d="M 0,841.89 H 1190.551 V 0 H 0 Z"
         transform="translate(-696.54742,-387.99911)"
         id="path51" /></clipPath><clipPath
       clipPathUnits="userSpaceOnUse"
       id="clipPath53"><path
         d="M 0,841.89 H 1190.551 V 0 H 0 Z"
         transform="translate(-728.69252,-401.56731)"
         id="path53" /></clipPath><clipPath
       clipPathUnits="userSpaceOnUse"
       id="clipPath55"><path
         d="M 0,841.89 H 1190.551 V 0 H 0 Z"
         transform="translate(-767.45604,-404.97401)"
         id="path55" /></clipPath><clipPath
       clipPathUnits="userSpaceOnUse"
       id="clipPath57"><path
         d="M 0,841.89 H 1190.551 V 0 H 0 Z"
         transform="translate(-791.39544,-386.81321)"
         id="path57" /></clipPath><clipPath
       clipPathUnits="userSpaceOnUse"
       id="clipPath59"><path
         d="M 0,841.89 H 1190.551 V 0 H 0 Z"
         transform="translate(-799.45202,-386.99731)"
         id="path59" /></clipPath><clipPath
       clipPathUnits="userSpaceOnUse"
       id="clipPath61"><path
         d="M 0,841.89 H 1190.551 V 0 H 0 Z"
         transform="translate(-821.18162,-401.56731)"
         id="path61" /></clipPath><clipPath
       clipPathUnits="userSpaceOnUse"
       id="clipPath63"><path
         d="M 0,841.89 H 1190.551 V 0 H 0 Z"
         transform="translate(-858.49585,-386.99731)"
         id="path63" /></clipPath><clipPath
       clipPathUnits="userSpaceOnUse"
       id="clipPath65"><path
         d="M 0,841.89 H 1190.551 V 0 H 0 Z"
         transform="translate(-883.5862,-389.80561)"
         id="path65" /></clipPath><clipPath
       clipPathUnits="userSpaceOnUse"
       id="clipPath67"><path
         d="M 0,841.89 H 1190.551 V 0 H 0 Z"
         transform="translate(-901.37882,-386.99731)"
         id="path67" /></clipPath><clipPath
       clipPathUnits="userSpaceOnUse"
       id="clipPath69"><path
         d="M 0,841.89 H 1190.551 V 0 H 0 Z"
         transform="translate(-438.65701,-329.93861)"
         id="path69" /></clipPath><clipPath
       clipPathUnits="userSpaceOnUse"
       id="clipPath71"><path
         d="M 0,841.89 H 1190.551 V 0 H 0 Z"
         transform="translate(-482.30041,-344.50851)"
         id="path71" /></clipPath><clipPath
       clipPathUnits="userSpaceOnUse"
       id="clipPath73"><path
         d="M 0,841.89 H 1190.551 V 0 H 0 Z"
         transform="translate(-521.06392,-347.91531)"
         id="path73" /></clipPath><clipPath
       clipPathUnits="userSpaceOnUse"
       id="clipPath75"><path
         d="M 0,841.89 H 1190.551 V 0 H 0 Z"
         transform="translate(-545.00341,-329.75441)"
         id="path75" /></clipPath><clipPath
       clipPathUnits="userSpaceOnUse"
       id="clipPath77"><path
         d="M 0,841.89 H 1190.551 V 0 H 0 Z"
         transform="translate(-561.79601,-340.72241)"
         id="path77" /></clipPath><clipPath
       clipPathUnits="userSpaceOnUse"
       id="clipPath79"><path
         d="M 0,841.89 H 1190.551 V 0 H 0 Z"
         transform="translate(-587.95621,-329.75441)"
         id="path79" /></clipPath><clipPath
       clipPathUnits="userSpaceOnUse"
       id="clipPath81"><path
         d="M 0,841.89 H 1190.551 V 0 H 0 Z"
         transform="translate(-613.23082,-333.39141)"
         id="path81" /></clipPath><clipPath
       clipPathUnits="userSpaceOnUse"
       id="clipPath83"><path
         d="M 0,841.89 H 1190.551 V 0 H 0 Z"
         id="path83" /></clipPath><clipPath
       clipPathUnits="userSpaceOnUse"
       id="clipPath85"><path
         d="M 0,841.89 H 1190.551 V 0 H 0 Z"
         transform="translate(-663.89582,-332.74691)"
         id="path85" /></clipPath><clipPath
       clipPathUnits="userSpaceOnUse"
       id="clipPath87"><path
         d="M 0,841.89 H 1190.551 V 0 H 0 Z"
         transform="translate(-688.66391,-332.74691)"
         id="path87" /></clipPath><clipPath
       clipPathUnits="userSpaceOnUse"
       id="clipPath89"><path
         d="M 0,841.89 H 1190.551 V 0 H 0 Z"
         transform="translate(-706.45652,-329.93861)"
         id="path89" /></clipPath><clipPath
       clipPathUnits="userSpaceOnUse"
       id="clipPath91"><path
         d="M 0,841.89 H 1190.551 V 0 H 0 Z"
         transform="translate(-729.74042,-333.98981)"
         id="path91" /></clipPath><clipPath
       clipPathUnits="userSpaceOnUse"
       id="clipPath93"><path
         d="M 0,841.89 H 1190.551 V 0 H 0 Z"
         transform="translate(-755.80854,-344.50851)"
         id="path93" /></clipPath><clipPath
       clipPathUnits="userSpaceOnUse"
       id="clipPath95"><path
         d="M 0,841.89 H 1190.551 V 0 H 0 Z"
         transform="translate(-779.01144,-329.93861)"
         id="path95" /></clipPath><clipPath
       clipPathUnits="userSpaceOnUse"
       id="clipPath97"><path
         d="M 0,841.89 H 1190.551 V 0 H 0 Z"
         transform="translate(-804.58615,-332.74691)"
         id="path97" /></clipPath><clipPath
       clipPathUnits="userSpaceOnUse"
       id="clipPath99"><path
         d="M 0,841.89 H 1190.551 V 0 H 0 Z"
         transform="translate(-837.2947,-347.24861)"
         id="path99" /></clipPath><clipPath
       clipPathUnits="userSpaceOnUse"
       id="clipPath101"><path
         d="M 0,841.89 H 1190.551 V 0 H 0 Z"
         transform="translate(-869.0605,-344.50851)"
         id="path101" /></clipPath><clipPath
       clipPathUnits="userSpaceOnUse"
       id="clipPath103"><path
         d="M 0,841.89 H 1190.551 V 0 H 0 Z"
         transform="translate(-899.5612,-332.74691)"
         id="path103" /></clipPath><clipPath
       clipPathUnits="userSpaceOnUse"
       id="clipPath105"><path
         d="M 0,841.89 H 1190.551 V 0 H 0 Z"
         transform="translate(-918.55075,-344.50851)"
         id="path105" /></clipPath><clipPath
       clipPathUnits="userSpaceOnUse"
       id="clipPath107"><path
         d="M 0,841.89 H 1190.551 V 0 H 0 Z"
         transform="translate(-950.48965,-340.72241)"
         id="path107" /></clipPath><clipPath
       clipPathUnits="userSpaceOnUse"
       id="clipPath109"><path
         d="M 0,841.89 H 1190.551 V 0 H 0 Z"
         transform="translate(-968.73145,-329.93861)"
         id="path109" /></clipPath><clipPath
       clipPathUnits="userSpaceOnUse"
       id="clipPath111"><path
         d="M 0,841.89 H 1190.551 V 0 H 0 Z"
         transform="translate(-996.0556,-329.43221)"
         id="path111" /></clipPath><clipPath
       clipPathUnits="userSpaceOnUse"
       id="clipPath113"><path
         d="M 0,841.89 H 1190.551 V 0 H 0 Z"
         transform="translate(-1028.1198,-347.96311)"
         id="path113" /></clipPath></defs><g
     inkscape:label="Layer 1"
     inkscape:groupmode="layer"
     id="layer1"
     transform="translate(-12.807345,-124.99151)"><g
       id="g20"><path
         style="color:#000000;font-style:normal;font-variant:normal;font-weight:bold;font-stretch:normal;font-size:11.2889px;line-height:normal;font-family:Thonburi;-inkscape-font-specification:'Thonburi Bold';font-variant-ligatures:normal;font-variant-position:normal;font-variant-caps:normal;font-variant-numeric:normal;font-variant-alternates:normal;font-variant-east-asian:normal;font-feature-settings:normal;font-variation-settings:normal;text-indent:0;text-align:center;text-decoration-line:none;text-decoration-style:solid;text-decoration-color:#000000;letter-spacing:normal;word-spacing:normal;text-transform:none;writing-mode:lr-tb;direction:ltr;text-orientation:upright;dominant-baseline:auto;baseline-shift:baseline;text-anchor:middle;white-space:normal;shape-padding:0;shape-margin:0;inline-size:0;clip-rule:nonzero;display:inline;overflow:visible;visibility:visible;isolation:auto;mix-blend-mode:normal;color-interpolation:sRGB;color-interpolation-filters:linearRGB;solid-color:#000000;solid-opacity:1;vector-effect:none;fill:#0080c8;fill-opacity:1;fill-rule:nonzero;stroke:none;stroke-width:1;stroke-linecap:butt;stroke-linejoin:round;stroke-miterlimit:40;stroke-dasharray:none;stroke-dashoffset:0;stroke-opacity:1;-inkscape-stroke:none;color-rendering:auto;image-rendering:auto;shape-rendering:auto;text-rendering:auto;enable-background:accumulate;stop-color:#000000;stop-opacity:1"
         d="m 377.15061,135.3502 v -4.48028 h 6.20888 v 4.48028 z"
         id="path19" /><path
         style="color:#000000;font-style:normal;font-variant:normal;font-weight:bold;font-stretch:normal;font-size:11.2889px;line-height:normal;font-family:Thonburi;-inkscape-font-specification:'Thonburi Bold';font-variant-ligatures:normal;font-variant-position:normal;font-variant-caps:normal;font-variant-numeric:normal;font-variant-alternates:normal;font-variant-east-asian:normal;font-feature-settings:normal;font-variation-settings:normal;text-indent:0;text-align:center;text-decoration-line:none;text-decoration-style:solid;text-decoration-color:#000000;letter-spacing:normal;word-spacing:normal;text-transform:none;writing-mode:lr-tb;direction:ltr;text-orientation:upright;dominant-baseline:auto;baseline-shift:baseline;text-anchor:middle;white-space:normal;shape-padding:0;shape-margin:0;inline-size:0;clip-rule:nonzero;display:inline;overflow:visible;visibility:visible;isolation:auto;mix-blend-mode:normal;color-interpolation:sRGB;color-interpolation-filters:linearRGB;solid-color:#000000;solid-opacity:1;vector-effect:none;fill:#9460a5;fill-opacity:1;fill-rule:nonzero;stroke:none;stroke-width:1;stroke-linecap:butt;stroke-linejoin:round;stroke-miterlimit:40;stroke-dasharray:none;stroke-dashoffset:0;stroke-opacity:1;-inkscape-stroke:none;color-rendering:auto;image-rendering:auto;shape-rendering:auto;text-rendering:auto;enable-background:accumulate;stop-color:#000000;stop-opacity:1"
         d="m 377.15061,140.46548 h 6.20888 v 24.97668 h -6.20888 z"
         id="path18" /><path
         style="color:#000000;font-style:normal;font-variant:normal;font-weight:bold;font-stretch:normal;font-size:11.2889px;line-height:normal;font-family:Thonburi;-inkscape-font-specification:'Thonburi Bold';font-variant-ligatures:normal;font-variant-position:normal;font-variant-caps:normal;font-variant-numeric:normal;font-variant-alternates:normal;font-variant-east-asian:normal;font-feature-settings:normal;font-variation-settings:normal;text-indent:0;text-align:center;text-decoration-line:none;text-decoration-style:solid;text-decoration-color:#000000;letter-spacing:normal;word-spacing:normal;text-transform:none;writing-mode:lr-tb;direction:ltr;text-orientation:upright;dominant-baseline:auto;baseline-shift:baseline;text-anchor:middle;white-space:normal;shape-padding:0;shape-margin:0;inline-size:0;clip-rule:nonzero;display:inline;overflow:visible;visibility:visible;isolation:auto;mix-blend-mode:normal;color-interpolation:sRGB;color-interpolation-filters:linearRGB;solid-color:#000000;solid-opacity:1;vector-effect:none;fill:#9460a5;fill-opacity:1;fill-rule:nonzero;stroke:none;stroke-width:1;stroke-linecap:butt;stroke-linejoin:round;stroke-miterlimit:40;stroke-dasharray:none;stroke-dashoffset:0;stroke-opacity:1;-inkscape-stroke:none;color-rendering:auto;image-rendering:auto;shape-rendering:auto;text-rendering:auto;enable-background:accumulate;stop-color:#000000;stop-opacity:1"
         d="m 367.44917,165.44216 q -0.1764,-0.5468 -0.3176,-1.07596 -0.1412,-0.52916 -0.2292,-0.93488 -1.65804,1.32292 -3.3514,1.95792 -1.95792,0.74084 -4.02168,0.74084 -3.58068,0 -5.73264,-1.83444 -2.46944,-2.11668 -2.46944,-5.09764 0,-1.72864 0.84668,-3.12208 0.86428,-1.39348 2.59292,-2.52236 1.42872,-0.91724 4.16276,-1.78152 2.73404,-0.86432 6.43824,-1.60516 l 1.35816,-0.2644 v -2.76932 q 0,-2.39888 -1.02304,-3.01624 -1.48168,-0.8996 -3.10448,-0.8996 -1.95788,0 -3.33372,1.09364 -1.02308,0.79372 -1.02308,2.46944 v 0.52916 h -6.57932 v -0.49388 q 0,-1.49932 1.60516,-3.47488 0.61736,-0.74084 1.6404,-1.42876 1.04072,-0.68792 2.46948,-1.25236 2.32832,-0.89956 5.37984,-0.89956 1.46404,0 2.8046,0.2292 1.34056,0.2292 2.4518,0.635 1.32292,0.51152 2.29308,1.12888 0.97012,0.59972 1.39348,1.1818 0.59972,0.84668 0.9172,2.22252 0.3176,1.37584 0.3176,3.21028 v 9.57792 q 0,0.79372 0.016,1.62276 0.016,0.8114 0.0528,1.67572 0.036,0.93484 0.2468,1.99316 0.2116,1.04072 0.56444,2.20488 z m -0.7232,-12.10028 q -1.30528,0.3352 -2.48708,0.70556 -1.16416,0.3528 -2.15196,0.7232 -0.97012,0.3528 -1.71096,0.7232 -0.7232,0.3528 -1.16416,0.68788 -1.32292,1.04072 -1.32292,3.10448 0,0.7232 0.194,1.34056 0.194,0.61736 0.58208,1.07596 0.388,0.4586 0.93484,0.7232 0.56448,0.2644 1.28764,0.2644 0.61736,0 1.30528,-0.2468 0.68792,-0.2468 1.51696,-0.74084 1.14652,-0.68792 2.22252,-2.61056 0.79372,-1.42876 0.79372,-3.81 z"
         id="path17" /><path
         style="color:#000000;font-style:normal;font-variant:normal;font-weight:bold;font-stretch:normal;font-size:11.2889px;line-height:normal;font-family:Thonburi;-inkscape-font-specification:'Thonburi Bold';font-variant-ligatures:normal;font-variant-position:normal;font-variant-caps:normal;font-variant-numeric:normal;font-variant-alternates:normal;font-variant-east-asian:normal;font-feature-settings:normal;font-variation-settings:normal;text-indent:0;text-align:center;text-decoration-line:none;text-decoration-style:solid;text-decoration-color:#000000;letter-spacing:normal;word-spacing:normal;text-transform:none;writing-mode:lr-tb;direction:ltr;text-orientation:upright;dominant-baseline:auto;baseline-shift:baseline;text-anchor:middle;white-space:normal;shape-padding:0;shape-margin:0;inline-size:0;clip-rule:nonzero;display:inline;overflow:visible;visibility:visible;isolation:auto;mix-blend-mode:normal;color-interpolation:sRGB;color-interpolation-filters:linearRGB;solid-color:#000000;solid-opacity:1;vector-effect:none;fill:#0080c8;fill-opacity:1;fill-rule:nonzero;stroke:none;stroke-width:1;stroke-linecap:butt;stroke-linejoin:round;stroke-miterlimit:40;stroke-dasharray:none;stroke-dashoffset:0;stroke-opacity:1;-inkscape-stroke:none;color-rendering:auto;image-rendering:auto;shape-rendering:auto;text-rendering:auto;enable-background:accumulate;stop-color:#000000;stop-opacity:1"
         d="m 347.11149,165.44216 h -7.93752 v -6.1736 h 7.93752 z"
         id="path16" /><path
         style="color:#000000;font-style:normal;font-variant:normal;font-weight:bold;font-stretch:normal;font-size:11.2889px;line-height:normal;font-family:Thonburi;-inkscape-font-specification:'Thonburi Bold';font-variant-ligatures:normal;font-variant-position:normal;font-variant-caps:normal;font-variant-numeric:normal;font-variant-alternates:normal;font-variant-east-asian:normal;font-feature-settings:normal;font-variation-settings:normal;text-indent:0;text-align:center;text-decoration-line:none;text-decoration-style:solid;text-decoration-color:#000000;letter-spacing:normal;word-spacing:normal;text-transform:none;writing-mode:lr-tb;direction:ltr;text-orientation:upright;dominant-baseline:auto;baseline-shift:baseline;text-anchor:middle;white-space:normal;shape-padding:0;shape-margin:0;inline-size:0;clip-rule:nonzero;display:inline;overflow:visible;visibility:visible;isolation:auto;mix-blend-mode:normal;color-interpolation:sRGB;color-interpolation-filters:linearRGB;solid-color:#000000;solid-opacity:1;vector-effect:none;fill:#312783;fill-opacity:1;fill-rule:nonzero;stroke:none;stroke-width:1;stroke-linecap:butt;stroke-linejoin:round;stroke-miterlimit:40;stroke-dasharray:none;stroke-dashoffset:0;stroke-opacity:1;-inkscape-stroke:none;color-rendering:auto;image-rendering:auto;shape-rendering:auto;text-rendering:auto;enable-background:accumulate;stop-color:#000000;stop-opacity:1"
         d="m 313.91509,165.44216 h -6.56168 v -34.57224 h 6.56168 v 15.24 h 13.61724 v -15.24 h 6.56168 v 34.57224 h -6.56168 V 149.867 h -13.61724 z"
         id="path15" /><path
         style="color:#000000;font-style:normal;font-variant:normal;font-weight:bold;font-stretch:normal;font-size:11.2889px;line-height:normal;font-family:Thonburi;-inkscape-font-specification:'Thonburi Bold';font-variant-ligatures:normal;font-variant-position:normal;font-variant-caps:normal;font-variant-numeric:normal;font-variant-alternates:normal;font-variant-east-asian:normal;font-feature-settings:normal;font-variation-settings:normal;text-indent:0;text-align:center;text-decoration-line:none;text-decoration-style:solid;text-decoration-color:#000000;letter-spacing:normal;word-spacing:normal;text-transform:none;writing-mode:lr-tb;direction:ltr;text-orientation:upright;dominant-baseline:auto;baseline-shift:baseline;text-anchor:middle;white-space:normal;shape-padding:0;shape-margin:0;inline-size:0;clip-rule:nonzero;display:inline;overflow:visible;visibility:visible;isolation:auto;mix-blend-mode:normal;color-interpolation:sRGB;color-interpolation-filters:linearRGB;solid-color:#000000;solid-opacity:1;vector-effect:none;fill:#312783;fill-opacity:1;fill-rule:nonzero;stroke:none;stroke-width:1;stroke-linecap:butt;stroke-linejoin:round;stroke-miterlimit:40;stroke-dasharray:none;stroke-dashoffset:0;stroke-opacity:1;-inkscape-stroke:none;color-rendering:auto;image-rendering:auto;shape-rendering:auto;text-rendering:auto;enable-background:accumulate;stop-color:#000000;stop-opacity:1"
         d="m 286.43369,165.44216 v -30.77988 h -11.64168 v -3.79236 h 29.651 v 3.79236 h -11.46528 v 30.77988 z"
         id="path14" /><path
         style="color:#000000;font-style:normal;font-variant:normal;font-weight:bold;font-stretch:normal;font-size:11.2889px;line-height:normal;font-family:Thonburi;-inkscape-font-specification:'Thonburi Bold';font-variant-ligatures:normal;font-variant-position:normal;font-variant-caps:normal;font-variant-numeric:normal;font-variant-alternates:normal;font-variant-east-asian:normal;font-feature-settings:normal;font-variation-settings:normal;text-indent:0;text-align:center;text-decoration-line:none;text-decoration-style:solid;text-decoration-color:#000000;letter-spacing:normal;word-spacing:normal;text-transform:none;writing-mode:lr-tb;direction:ltr;text-orientation:upright;dominant-baseline:auto;baseline-shift:baseline;text-anchor:middle;white-space:normal;shape-padding:0;shape-margin:0;inline-size:0;clip-rule:nonzero;display:inline;overflow:visible;visibility:visible;isolation:auto;mix-blend-mode:normal;color-interpolation:sRGB;color-interpolation-filters:linearRGB;solid-color:#000000;solid-opacity:1;vector-effect:none;fill:#312783;fill-opacity:1;fill-rule:nonzero;stroke:none;stroke-width:1;stroke-linecap:butt;stroke-linejoin:round;stroke-miterlimit:40;stroke-dasharray:none;stroke-dashoffset:0;stroke-opacity:1;-inkscape-stroke:none;color-rendering:auto;image-rendering:auto;shape-rendering:auto;text-rendering:auto;enable-background:accumulate;stop-color:#000000;stop-opacity:1"
         d="m 248.86285,165.44216 v -34.57224 h 6.56168 v 30.44476 h 17.9564 v 4.12748 z"
         id="path13" /><path
         style="color:#000000;font-style:normal;font-variant:normal;font-weight:bold;font-stretch:normal;font-size:11.2889px;line-height:normal;font-family:Thonburi;-inkscape-font-specification:'Thonburi Bold';font-variant-ligatures:normal;font-variant-position:normal;font-variant-caps:normal;font-variant-numeric:normal;font-variant-alternates:normal;font-variant-east-asian:normal;font-feature-settings:normal;font-variation-settings:normal;text-indent:0;text-align:center;text-decoration-line:none;text-decoration-style:solid;text-decoration-color:#000000;letter-spacing:normal;word-spacing:normal;text-transform:none;writing-mode:lr-tb;direction:ltr;text-orientation:upright;dominant-baseline:auto;baseline-shift:baseline;text-anchor:middle;white-space:normal;shape-padding:0;shape-margin:0;inline-size:0;clip-rule:nonzero;display:inline;overflow:visible;visibility:visible;isolation:auto;mix-blend-mode:normal;color-interpolation:sRGB;color-interpolation-filters:linearRGB;solid-color:#000000;solid-opacity:1;vector-effect:none;fill:#312783;fill-opacity:1;fill-rule:nonzero;stroke:none;stroke-width:1;stroke-linecap:butt;stroke-linejoin:round;stroke-miterlimit:40;stroke-dasharray:none;stroke-dashoffset:0;stroke-opacity:1;-inkscape-stroke:none;color-rendering:auto;image-rendering:auto;shape-rendering:auto;text-rendering:auto;enable-background:accumulate;stop-color:#000000;stop-opacity:1"
         d="m 219.61754,165.44216 h -6.1736 l 14.16405,-34.57224 h 6.4029 l 13.07044,34.57224 h -6.84392 l -3.5454,-9.41916 h -13.21154 z m 5.36225,-13.19388 h 10.26582 q -0.67028,-1.74628 -1.28764,-3.3514 -0.59972,-1.6228 -1.19944,-3.19264 -0.59972,-1.58752 -1.21708,-3.19264 -0.61736,-1.6228 -1.27,-3.36904 z"
         id="path12" /><path
         style="color:#000000;font-style:normal;font-variant:normal;font-weight:bold;font-stretch:normal;font-size:11.2889px;line-height:normal;font-family:Thonburi;-inkscape-font-specification:'Thonburi Bold';font-variant-ligatures:normal;font-variant-position:normal;font-variant-caps:normal;font-variant-numeric:normal;font-variant-alternates:normal;font-variant-east-asian:normal;font-feature-settings:normal;font-variation-settings:normal;text-indent:0;text-align:center;text-decoration-line:none;text-decoration-style:solid;text-decoration-color:#000000;letter-spacing:normal;word-spacing:normal;text-transform:none;writing-mode:lr-tb;direction:ltr;text-orientation:upright;dominant-baseline:auto;baseline-shift:baseline;text-anchor:middle;white-space:normal;shape-padding:0;shape-margin:0;inline-size:0;clip-rule:nonzero;display:inline;overflow:visible;visibility:visible;isolation:auto;mix-blend-mode:normal;color-interpolation:sRGB;color-interpolation-filters:linearRGB;solid-color:#000000;solid-opacity:1;vector-effect:none;fill:#312783;fill-opacity:1;fill-rule:nonzero;stroke:none;stroke-width:1;stroke-linecap:butt;stroke-linejoin:round;stroke-miterlimit:40;stroke-dasharray:none;stroke-dashoffset:0;stroke-opacity:1;-inkscape-stroke:none;color-rendering:auto;image-rendering:auto;shape-rendering:auto;text-rendering:auto;enable-background:accumulate;stop-color:#000000;stop-opacity:1"
         d="m 190.03712,165.44216 v -34.57224 h 21.44891 v 4.12748 H 196.5988 v 10.4246 h 12.99987 v 3.77472 H 196.5988 v 12.11796 h 16.08668 v 4.12748 z"
         id="path11" /><path
         style="color:#000000;font-style:normal;font-variant:normal;font-weight:bold;font-stretch:normal;font-size:11.2889px;line-height:normal;font-family:Thonburi;-inkscape-font-specification:'Thonburi Bold';font-variant-ligatures:normal;font-variant-position:normal;font-variant-caps:normal;font-variant-numeric:normal;font-variant-alternates:normal;font-variant-east-asian:normal;font-feature-settings:normal;font-variation-settings:normal;text-indent:0;text-align:center;text-decoration-line:none;text-decoration-style:solid;text-decoration-color:#000000;letter-spacing:normal;word-spacing:normal;text-transform:none;writing-mode:lr-tb;direction:ltr;text-orientation:upright;dominant-baseline:auto;baseline-shift:baseline;text-anchor:middle;white-space:normal;shape-padding:0;shape-margin:0;inline-size:0;clip-rule:nonzero;display:inline;overflow:visible;visibility:visible;isolation:auto;mix-blend-mode:normal;color-interpolation:sRGB;color-interpolation-filters:linearRGB;solid-color:#000000;solid-opacity:1;vector-effect:none;fill:#312783;fill-opacity:1;fill-rule:nonzero;stroke:none;stroke-width:1;stroke-linecap:butt;stroke-linejoin:round;stroke-miterlimit:40;stroke-dasharray:none;stroke-dashoffset:0;stroke-opacity:1;-inkscape-stroke:none;color-rendering:auto;image-rendering:auto;shape-rendering:auto;text-rendering:auto;enable-background:accumulate;stop-color:#000000;stop-opacity:1"
         d="m 165.46612,165.44216 h -6.56167 v -34.57224 h 6.56167 v 15.24 h 13.61724 v -15.24 h 6.56167 v 34.57224 h -6.56167 V 149.867 h -13.61724 z"
         id="path10" /><path
         style="color:#000000;font-style:normal;font-variant:normal;font-weight:bold;font-stretch:normal;font-size:11.2889px;line-height:normal;font-family:Thonburi;-inkscape-font-specification:'Thonburi Bold';font-variant-ligatures:normal;font-variant-position:normal;font-variant-caps:normal;font-variant-numeric:normal;font-variant-alternates:normal;font-variant-east-asian:normal;font-feature-settings:normal;font-variation-settings:normal;text-indent:0;text-align:center;text-decoration-line:none;text-decoration-style:solid;text-decoration-color:#000000;letter-spacing:normal;word-spacing:normal;text-transform:none;writing-mode:lr-tb;direction:ltr;text-orientation:upright;dominant-baseline:auto;baseline-shift:baseline;text-anchor:middle;white-space:normal;shape-padding:0;shape-margin:0;inline-size:0;clip-rule:nonzero;display:inline;overflow:visible;visibility:visible;isolation:auto;mix-blend-mode:normal;color-interpolation:sRGB;color-interpolation-filters:linearRGB;solid-color:#000000;solid-opacity:1;vector-effect:none;fill:#0080c8;fill-opacity:1;fill-rule:nonzero;stroke:none;stroke-width:1;stroke-linecap:butt;stroke-linejoin:round;stroke-miterlimit:40;stroke-dasharray:none;stroke-dashoffset:0;stroke-opacity:1;-inkscape-stroke:none;color-rendering:auto;image-rendering:auto;shape-rendering:auto;text-rendering:auto;enable-background:accumulate;stop-color:#000000;stop-opacity:1"
         d="m 140.27776,153.28896 v -3.77472 h 15.80446 v 3.77472 z"
         id="path9" /><path
         style="color:#000000;font-style:normal;font-variant:normal;font-weight:bold;font-stretch:normal;font-size:11.2889px;line-height:normal;font-family:Thonburi;-inkscape-font-specification:'Thonburi Bold';font-variant-ligatures:normal;font-variant-position:normal;font-variant-caps:normal;font-variant-numeric:normal;font-variant-alternates:normal;font-variant-east-asian:normal;font-feature-settings:normal;font-variation-settings:normal;text-indent:0;text-align:center;text-decoration-line:none;text-decoration-style:solid;text-decoration-color:#000000;letter-spacing:normal;word-spacing:normal;text-transform:none;writing-mode:lr-tb;direction:ltr;text-orientation:upright;dominant-baseline:auto;baseline-shift:baseline;text-anchor:middle;white-space:normal;shape-padding:0;shape-margin:0;inline-size:0;clip-rule:nonzero;display:inline;overflow:visible;visibility:visible;isolation:auto;mix-blend-mode:normal;color-interpolation:sRGB;color-interpolation-filters:linearRGB;solid-color:#000000;solid-opacity:1;vector-effect:none;fill:#312783;fill-opacity:1;fill-rule:nonzero;stroke:none;stroke-width:1;stroke-linecap:butt;stroke-linejoin:round;stroke-miterlimit:40;stroke-dasharray:none;stroke-dashoffset:0;stroke-opacity:1;-inkscape-stroke:none;color-rendering:auto;image-rendering:auto;shape-rendering:auto;text-rendering:auto;enable-background:accumulate;stop-color:#000000;stop-opacity:1"
         d="m 112.09082,144.98104 v 20.46112 h -5.89139 v -34.57224 h 6.33237 l 9.64848,22.18976 q 1.05834,-2.66348 2.11667,-5.30932 1.07597,-2.66348 2.15195,-5.32696 l 4.62139,-11.55348 h 6.33237 v 34.57224 h -6.06779 v -20.955 l -0.15876,0.47624 -6.10306,15.34584 h -6.35001 z"
         id="path8" /><path
         style="color:#000000;font-style:normal;font-variant:normal;font-weight:bold;font-stretch:normal;font-size:11.2889px;line-height:normal;font-family:Thonburi;-inkscape-font-specification:'Thonburi Bold';font-variant-ligatures:normal;font-variant-position:normal;font-variant-caps:normal;font-variant-numeric:normal;font-variant-alternates:normal;font-variant-east-asian:normal;font-feature-settings:normal;font-variation-settings:normal;text-indent:0;text-align:center;text-decoration-line:none;text-decoration-style:solid;text-decoration-color:#000000;letter-spacing:normal;word-spacing:normal;text-transform:none;writing-mode:lr-tb;direction:ltr;text-orientation:upright;dominant-baseline:auto;baseline-shift:baseline;text-anchor:middle;white-space:normal;shape-padding:0;shape-margin:0;inline-size:0;clip-rule:nonzero;display:inline;overflow:visible;visibility:visible;isolation:auto;mix-blend-mode:normal;color-interpolation:sRGB;color-interpolation-filters:linearRGB;solid-color:#000000;solid-opacity:1;vector-effect:none;fill:#312783;fill-opacity:1;fill-rule:nonzero;stroke:none;stroke-width:1;stroke-linecap:butt;stroke-linejoin:round;stroke-miterlimit:40;stroke-dasharray:none;stroke-dashoffset:0;stroke-opacity:1;-inkscape-stroke:none;color-rendering:auto;image-rendering:auto;shape-rendering:auto;text-rendering:auto;enable-background:accumulate;stop-color:#000000;stop-opacity:1"
         d="m 101.82498,165.44216 h -6.561654 v -34.57224 h 6.561654 z"
         id="path7" /><path
         style="color:#000000;font-style:normal;font-variant:normal;font-weight:bold;font-stretch:normal;font-size:11.2889px;line-height:normal;font-family:Thonburi;-inkscape-font-specification:'Thonburi Bold';font-variant-ligatures:normal;font-variant-position:normal;font-variant-caps:normal;font-variant-numeric:normal;font-variant-alternates:normal;font-variant-east-asian:normal;font-feature-settings:normal;font-variation-settings:normal;text-indent:0;text-align:center;text-decoration-line:none;text-decoration-style:solid;text-decoration-color:#000000;letter-spacing:normal;word-spacing:normal;text-transform:none;writing-mode:lr-tb;direction:ltr;text-orientation:upright;dominant-baseline:auto;baseline-shift:baseline;text-anchor:middle;white-space:normal;shape-padding:0;shape-margin:0;inline-size:0;clip-rule:nonzero;display:inline;overflow:visible;visibility:visible;isolation:auto;mix-blend-mode:normal;color-interpolation:sRGB;color-interpolation-filters:linearRGB;solid-color:#000000;solid-opacity:1;vector-effect:none;fill:#312783;fill-opacity:1;fill-rule:nonzero;stroke:none;stroke-width:1;stroke-linecap:butt;stroke-linejoin:round;stroke-miterlimit:40;stroke-dasharray:none;stroke-dashoffset:0;stroke-opacity:1;-inkscape-stroke:none;color-rendering:auto;image-rendering:auto;shape-rendering:auto;text-rendering:auto;enable-background:accumulate;stop-color:#000000;stop-opacity:1"
         d="m 66.018002,165.44216 h -6.17362 l 14.164044,-34.57224 h 6.402924 l 13.070428,34.57224 h -6.843896 l -3.54542,-9.41916 h -13.21154 z m 5.362228,-13.19388 h 10.265844 q -0.67028,-1.74628 -1.28764,-3.3514 -0.599724,-1.6228 -1.199448,-3.19264 -0.599724,-1.58752 -1.217084,-3.19264 -0.61736,-1.6228 -1.27,-3.36904 z"
         id="text7" /></g><text
       xml:space="preserve"
       style="font-size:11.2889px;font-family:Sans;-inkscape-font-specification:'Sans, Normal';text-align:center;writing-mode:lr-tb;direction:ltr;text-orientation:upright;text-anchor:middle;fill:#000000;fill-opacity:1;stroke:none;stroke-width:0.529167;stroke-linejoin:round;stroke-miterlimit:40"
       x="85.987961"
       y="54.528358"
       id="text7-9"><tspan
         sodipodi:role="line"
         id="tspan7-3"
         style="font-style:normal;font-variant:normal;font-weight:bold;font-stretch:normal;font-family:Thonburi;-inkscape-font-specification:'Thonburi Bold';fill:#000000;fill-opacity:1;stroke:none;stroke-width:0.529167"
         x="85.987961"
         y="54.528358">AIM-HEALTH.ai</tspan></text><g
       id="g19"
       transform="matrix(0.605,0,0,0.605,12.96014,7.527111)"
       style="stroke-width:1.65289"><path
         id="path2"
         d="m 0,0 h 53.565 c 1.003,0 1.816,-0.813 1.816,-1.816 v -12.576 c 0,-1.003 -0.813,-1.816 -1.816,-1.816 H 0 c -1.003,0 -1.816,-0.813 -1.816,-1.816 v -59.801 c 0,-1.003 -0.813,-1.816 -1.816,-1.816 h -22.452 c -1.003,0 -1.816,0.813 -1.816,1.816 v 95.271 c 0,1.003 0.813,1.816 1.816,1.816 h 22.452 c 1.003,0 1.816,-0.813 1.816,-1.816 V 1.816 C -1.816,0.813 -1.003,0 0,0"
         style="fill:#2e3192;fill-opacity:1;fill-rule:nonzero;stroke:none;stroke-width:1.65289"
         transform="matrix(0.35277776,0,0,-0.35277776,56.508472,243.77447)"
         clip-path="url(#clipPath3)" /><path
         id="path4"
         d="m 0,0 h 46.293 c 1.002,0 1.815,-0.813 1.815,-1.816 v -9.069 c 0,-1.003 -0.813,-1.816 -1.815,-1.816 H 21.815 c -2.95,0 -5.342,-2.392 -5.342,-5.343 v -21.563 c 0,-1.003 -0.813,-1.816 -1.816,-1.816 h -29.183 c -1.003,0 -1.816,0.813 -1.816,1.816 v 25.09 c 0,1.003 0.813,1.816 1.816,1.816 h 10.894 c 1.003,0 1.816,0.813 1.816,1.816 v 9.069 C -1.816,-0.813 -1.003,0 0,0"
         style="fill:#0e88d3;fill-opacity:1;fill-rule:nonzero;stroke:none;stroke-width:1.65289"
         transform="matrix(0.35277776,0,0,-0.35277776,25.640734,244.9186)"
         clip-path="url(#clipPath5)" /><path
         id="path6"
         d="m 0,0 h -19.058 c -1.003,0 -1.816,0.813 -1.816,1.816 V 33.06 c 0,1.003 0.813,1.816 1.816,1.816 H 0 c 1.003,0 1.816,-0.813 1.816,-1.816 V 1.816 C 1.816,0.813 1.003,0 0,0"
         style="fill:#0e88d3;fill-opacity:1;fill-rule:nonzero;stroke:none;stroke-width:1.65289"
         transform="matrix(0.35277776,0,0,-0.35277776,41.858988,267.13697)"
         clip-path="url(#clipPath7)" /><path
         id="path8-0"
         d="M 0,0 H -5.171 C -6.173,0 -6.986,0.813 -6.986,1.816 V 16.33 c 0,2.932 -2.377,5.309 -5.31,5.309 h -17.461 c -1.002,0 -1.815,0.813 -1.815,1.816 v 16.303 c 0,1.003 0.813,1.816 1.815,1.816 h 20.955 c 1.003,0 1.816,0.813 1.816,1.816 v 26.049 c 0,1.003 0.813,1.816 1.815,1.816 h 13.28 c 1.003,0 1.816,-0.813 1.816,-1.816 V 57.234 c 0,-1.003 0.813,-1.816 1.816,-1.816 h 7.91 c 1.003,0 1.816,-0.813 1.816,-1.816 V 1.816 C 21.467,0.813 20.654,0 19.651,0 H 9.925 Z"
         style="fill:#ec008c;fill-opacity:1;fill-rule:nonzero;stroke:none;stroke-width:1.65289"
         transform="matrix(0.35277776,0,0,-0.35277776,34.92655,225.5154)"
         clip-path="url(#clipPath9)" /><path
         id="path10-2"
         d="m 0,0 h 24.845 c 1.003,0 1.816,-0.813 1.816,-1.816 V -13.97 c 0,-1.003 -0.813,-1.816 -1.816,-1.816 H 0 c -1.003,0 -1.816,0.813 -1.816,1.816 V -1.816 C -1.816,-0.813 -1.003,0 0,0"
         style="fill:#33bdf2;fill-opacity:1;fill-rule:nonzero;stroke:none;stroke-width:1.65289"
         transform="matrix(0.35277776,0,0,-0.35277776,0.38812561,223.10529)"
         clip-path="url(#clipPath11)" /><path
         id="path12-3"
         d="M 0,0 V 5.004 C 0,6.007 0.813,6.82 1.816,6.82 h 24.091 c 1.003,0 1.816,-0.813 1.816,-1.816 v -8.69 c 0,-1.003 -0.813,-1.816 -1.816,-1.816 h -4.683 c -2.338,0 -4.234,-1.896 -4.234,-4.235 v -11.376 c 0,-1.003 -0.813,-1.816 -1.816,-1.816 h -53.873 c -1.003,0 -1.816,0.813 -1.816,1.816 v 17.481 c 0,1.003 0.813,1.816 1.816,1.816 H -1.816 C -0.813,-1.816 0,-1.003 0,0"
         style="fill:#33bdf2;fill-opacity:1;fill-rule:nonzero;stroke:none;stroke-width:1.65289"
         transform="matrix(0.35277776,0,0,-0.35277776,14.040237,231.54737)"
         clip-path="url(#clipPath13)" /><path
         id="path14-7"
         d="m 0,0 h -20.364 c -1.003,0 -1.816,0.813 -1.816,1.816 v 23.399 c 0,1.003 0.813,1.816 1.816,1.816 H 0 c 1.003,0 1.816,-0.813 1.816,-1.816 V 1.816 C 1.816,0.813 1.003,0 0,0"
         style="fill:#2e3192;fill-opacity:1;fill-rule:nonzero;stroke:none;stroke-width:1.65289"
         transform="matrix(0.35277776,0,0,-0.35277776,70.420581,262.11002)"
         clip-path="url(#clipPath15)" /><path
         id="path16-1"
         d="m 0,0 h 7.918 c 1.003,0 1.816,-0.813 1.816,-1.816 v -37.2 c 0,-1.002 -0.813,-1.815 -1.816,-1.815 H 0 c -1.003,0 -1.816,0.813 -1.816,1.815 v 37.2 C -1.816,-0.813 -1.003,0 0,0 m -21.456,37.347 v -108.19 c 0,-1.003 0.813,-1.816 1.816,-1.816 h 37.153 c 3.417,0 6.187,-2.77 6.187,-6.187 v -11.836 c 0,-1.003 0.813,-1.816 1.816,-1.816 H 45.72 c 1.003,0 1.816,0.813 1.816,1.816 v 19.537 c 0,1.003 0.813,1.816 1.815,1.816 h 24.857 c 1.003,0 1.816,0.813 1.816,1.816 v 10.382 c 0,1.003 -0.813,1.816 -1.816,1.816 H 32.762 c -1.003,0 -1.816,0.813 -1.816,1.816 v 12.194 c 0,1.002 0.813,1.815 1.816,1.815 h 19.934 c 1.003,0 1.816,0.813 1.816,1.816 v 17.941 c 0,1.002 -0.813,1.815 -1.816,1.815 H 32.762 c -1.003,0 -1.816,0.813 -1.816,1.816 v 29.57 c 0,1.003 -0.813,1.816 -1.816,1.816 H 0 c -1.003,0 -1.816,0.813 -1.816,1.815 v 20.248 c 0,1.003 -0.813,1.816 -1.816,1.816 H -19.64 c -1.003,0 -1.816,-0.813 -1.816,-1.816"
         style="fill:#8951ae;fill-opacity:1;fill-rule:nonzero;stroke:none;stroke-width:1.65289"
         transform="matrix(0.35277776,0,0,-0.35277776,54.235067,207.97187)"
         clip-path="url(#clipPath17)" /></g></g></svg>
